<svg width="131" height="125" viewBox="0 0 131 125" fill="none" xmlns="http://www.w3.org/2000/svg">
<path d="M55.6416 8.56654L72.7578 8.63348L78.309 25.0363L64.6235 35.1069L50.6143 24.928L55.6416 8.56654Z" fill="#2D2B2B"/>
<path d="M43.109 45.0775L26.1812 47.6113L18.2029 32.242L30.1998 20.2095L45.5926 28.1422L43.109 45.0775Z" fill="#2D2B2B"/>
<path d="M22.8767 79.5434L6.6488 74.0967L6.53827 56.7796L22.6979 51.5237L32.7956 65.5925L22.8767 79.5434Z" fill="#2D2B2B"/>
<path d="M31.3056 112.288L19.1626 100.223L26.7256 84.6442L43.5429 87.0808L46.3735 104.165L31.3056 112.288Z" fill="#2D2B2B"/>
<path d="M65.7728 95.1567L79.4079 105.504L73.9787 121.947L56.9882 121.763L51.9168 105.206L65.7728 95.1567Z" fill="#2D2B2B"/>
<path d="M122.418 57.7456L122.206 74.8607L105.756 80.2722L95.8025 66.5016L106.1 52.5794L122.418 57.7456Z" fill="#2D2B2B"/>
<path d="M97.0708 112.708L82.4563 103.798L86.1891 86.8881L103.111 85.3474L109.836 101.305L97.0708 112.708Z" fill="#2D2B2B"/>
<path d="M99.9842 19.8466L111.453 32.5526L103.055 47.6968L86.3965 44.3505L84.4986 27.1381L99.9842 19.8466Z" fill="#2D2B2B"/>
<path d="M58.9185 60.27C58.4464 60.329 57.2104 61.5894 56.7786 61.9208C55.6199 62.81 54.2311 63.7733 52.9879 64.5192C51.9428 65.1463 51.5071 65.947 50.3895 66.3534C49.6202 66.6331 47.961 67.8781 47.6382 68.5238" stroke="white" stroke-width="2"/>
<circle cx="64" cy="66" r="43.5" fill="#2D2B2B" stroke="#2D2B2B"/>
<circle cx="64" cy="66" r="30.5" fill="white" stroke="#2D2B2B"/>
<path d="M42.813 70.124C41.349 70.46 39.981 70.748 38.709 70.988C37.437 71.204 36.117 71.312 34.749 71.312C34.173 71.312 33.549 71.288 32.877 71.24C32.205 71.168 31.545 71.024 30.897 70.808C30.249 70.592 29.649 70.292 29.097 69.908C28.545 69.524 28.089 69.008 27.729 68.36C27.825 68.024 28.041 67.664 28.377 67.28C28.737 66.896 29.145 66.5 29.601 66.092C30.057 65.66 30.537 65.24 31.041 64.832C31.569 64.424 32.061 64.016 32.517 63.608C33.189 63.008 33.789 62.42 34.317 61.844C34.869 61.244 35.397 60.62 35.901 59.972C36.429 59.3 36.969 58.556 37.521 57.74C38.073 56.9 38.697 55.928 39.393 54.824C39.969 54.824 40.509 54.92 41.013 55.112C41.517 55.28 41.949 55.508 42.309 55.796C42.693 56.06 42.993 56.36 43.209 56.696C43.425 57.032 43.533 57.368 43.533 57.704C43.533 57.968 43.509 58.232 43.461 58.496C43.413 58.76 43.365 59.012 43.317 59.252C43.173 59.132 43.005 59.072 42.813 59.072C42.573 59.072 42.201 59.252 41.697 59.612C41.193 59.972 40.617 60.44 39.969 61.016C39.321 61.568 38.625 62.204 37.881 62.924C37.161 63.644 36.441 64.364 35.721 65.084C35.001 65.78 34.329 66.44 33.705 67.064C33.081 67.688 32.553 68.204 32.121 68.612C32.289 68.732 32.481 68.84 32.697 68.936C32.913 69.032 33.189 69.116 33.525 69.188C33.861 69.26 34.281 69.32 34.785 69.368C35.289 69.392 35.913 69.404 36.657 69.404C37.137 69.404 37.677 69.38 38.277 69.332C38.901 69.284 39.513 69.224 40.113 69.152C40.713 69.08 41.277 69.008 41.805 68.936C42.357 68.864 42.813 68.792 43.173 68.72C43.197 68.792 43.209 68.888 43.209 69.008C43.209 69.2 43.161 69.404 43.065 69.62C42.993 69.836 42.909 70.004 42.813 70.124ZM60.9075 61.988C61.6755 61.988 62.2755 62.204 62.7075 62.636C63.1635 63.068 63.3915 63.668 63.3915 64.436C63.3915 64.628 63.3795 64.832 63.3555 65.048C63.3315 65.24 63.2835 65.408 63.2115 65.552C62.8995 65.504 62.5515 65.468 62.1675 65.444C61.7835 65.396 61.3275 65.372 60.7995 65.372C59.7195 65.372 58.6395 65.468 57.5595 65.66C56.4795 65.852 55.4475 66.008 54.4635 66.128C53.3835 68.672 52.4955 71.06 51.7995 73.292C51.1035 75.524 50.5635 77.732 50.1795 79.916C49.3635 79.724 48.6435 79.376 48.0195 78.872C47.3955 78.368 46.8075 77.66 46.2555 76.748C46.4235 76.364 46.6275 75.908 46.8675 75.38C47.1075 74.828 47.3955 74.144 47.7315 73.328C48.0675 72.488 48.4635 71.48 48.9195 70.304C49.3995 69.104 49.9635 67.676 50.6115 66.02C49.6035 65.684 48.9435 65.096 48.6315 64.256C48.7515 64.136 49.0875 64.004 49.6395 63.86C50.1915 63.692 50.8635 63.512 51.6555 63.32C52.0155 62.384 52.3275 61.556 52.5915 60.836C52.8555 60.092 53.0955 59.396 53.3115 58.748C53.5275 58.076 53.7195 57.428 53.8875 56.804C54.0795 56.156 54.2475 55.472 54.3915 54.752H54.2115C53.2995 54.752 52.5555 54.536 51.9795 54.104C51.4275 53.672 51.1515 53.108 51.1515 52.412C51.1515 52.22 51.1755 51.992 51.2235 51.728C51.2955 51.464 51.3795 51.236 51.4755 51.044C51.9315 51.116 52.3755 51.164 52.8075 51.188C53.2635 51.212 53.8515 51.224 54.5715 51.224C56.0835 51.224 57.4995 51.188 58.8195 51.116C60.1395 51.02 61.3275 50.924 62.3835 50.828C63.4635 50.732 64.3875 50.648 65.1555 50.576C65.9235 50.48 66.5115 50.432 66.9195 50.432C67.4715 50.432 67.9635 50.72 68.3955 51.296C68.8275 51.872 69.1635 52.688 69.4035 53.744C68.6355 53.672 68.0115 53.624 67.5315 53.6C67.0755 53.576 66.6675 53.564 66.3075 53.564C65.0835 53.564 63.9555 53.624 62.9235 53.744C61.9155 53.84 60.9555 53.96 60.0435 54.104C59.8995 54.32 59.7315 54.596 59.5395 54.932C59.3715 55.268 59.1435 55.748 58.8555 56.372C58.5675 56.972 58.1955 57.764 57.7395 58.748C57.3075 59.732 56.7555 60.98 56.0835 62.492C57.0195 62.348 57.9075 62.228 58.7475 62.132C59.6115 62.036 60.3315 61.988 60.9075 61.988ZM86.9681 50.252C84.9521 53.78 82.8401 57.212 80.6321 60.548C78.4241 63.884 76.2041 66.992 73.9721 69.872C71.7401 72.752 69.5561 75.344 67.4201 77.648C65.2841 79.952 63.2921 81.824 61.4441 83.264C61.1801 83.216 60.8801 83.024 60.5441 82.688C60.2321 82.376 60.0281 82.016 59.9321 81.608C60.8201 81.08 61.7801 80.3 62.8121 79.268C63.8681 78.236 64.9601 77.036 66.0881 75.668C67.2401 74.3 68.4041 72.8 69.5801 71.168C70.7801 69.536 71.9441 67.856 73.0721 66.128C74.2001 64.4 75.2801 62.672 76.3121 60.944C77.3681 59.192 78.3161 57.524 79.1561 55.94C80.0201 54.356 80.7641 52.904 81.3881 51.584C82.0121 50.24 82.4801 49.1 82.7921 48.164C83.0801 48.164 83.4401 48.236 83.8721 48.38C84.3281 48.524 84.7721 48.704 85.2041 48.92C85.6361 49.136 86.0201 49.364 86.3561 49.604C86.6921 49.844 86.8961 50.06 86.9681 50.252ZM91.3933 57.2C92.4253 57.488 93.3973 57.86 94.3093 58.316C95.2213 58.748 96.0733 59.24 96.8653 59.792C97.6813 60.32 98.4493 60.908 99.1693 61.556C99.9133 62.18 100.633 62.828 101.329 63.5C101.857 64.028 102.361 64.712 102.841 65.552C103.321 66.368 103.561 67.256 103.561 68.216C103.561 68.576 103.525 68.912 103.453 69.224C103.141 69.416 102.733 69.548 102.229 69.62C101.749 69.668 101.209 69.692 100.609 69.692C99.9133 69.692 99.1933 69.68 98.4493 69.656C97.7053 69.608 97.0093 69.584 96.3613 69.584C95.4973 69.584 94.6813 69.62 93.9133 69.692C93.1693 69.764 92.3893 69.884 91.5733 70.052C90.7573 70.196 89.8813 70.388 88.9453 70.628C88.0333 70.868 86.9653 71.156 85.7413 71.492C84.9493 70.388 84.5533 69.44 84.5533 68.648C84.5533 67.928 84.8773 67.4 85.5253 67.064C86.1973 66.704 87.0853 66.5 88.1893 66.452C88.9813 66.428 89.9413 66.404 91.0693 66.38C92.2213 66.332 93.3733 66.296 94.5253 66.272C95.7013 66.224 96.8053 66.188 97.8373 66.164C98.8933 66.14 99.7333 66.128 100.357 66.128C100.309 65.912 100.237 65.708 100.141 65.516C100.069 65.324 99.9253 65.108 99.7093 64.868C99.5173 64.604 99.2533 64.304 98.9173 63.968C98.6053 63.608 98.1973 63.176 97.6933 62.672C97.2133 62.216 96.6733 61.76 96.0733 61.304C95.4973 60.824 94.8853 60.38 94.2373 59.972C93.5893 59.564 92.9173 59.192 92.2213 58.856C91.5253 58.52 90.8413 58.244 90.1693 58.028C90.2413 57.836 90.4093 57.656 90.6733 57.488C90.9613 57.32 91.2013 57.224 91.3933 57.2Z" fill="#4F46E5"/>
</svg>
